<svg xmlns="http://www.w3.org/2000/svg" xmlns:xlink="http://www.w3.org/1999/xlink" version="1.1" x="0px" y="0px" viewBox="0 0 48 60" style="enable-background:new 0 0 48 48;" xml:space="preserve"><g><defs><rect id="b" width="48" height="48"/></defs><clipPath id="a"><use xlink:href="#b" style="" overflow="visible"/></clipPath><path style="clip-path:url(#a);" d="M17.467,35.209c0-0.119,0.096-0.228,0.229-0.228h2.89c1.475,0,2.686,1.199,2.686,2.65   c0,1.487-1.211,2.699-2.674,2.699h-1.26v2.818c0,0.119-0.107,0.228-0.228,0.228h-1.414c-0.133,0-0.229-0.108-0.229-0.228V35.209z    M20.478,38.58c0.516,0,0.947-0.408,0.947-0.948c0-0.504-0.431-0.888-0.947-0.888h-1.14v1.836H20.478z"/><path style="clip-path:url(#a);" d="M24.055,42.237l0.565-0.995c0.096-0.156,0.323-0.132,0.407-0.072   c0.047,0.024,0.91,0.66,1.703,0.66c0.479,0,0.826-0.3,0.826-0.72c0-0.504-0.42-0.888-1.234-1.212   c-1.031-0.407-2.327-1.211-2.327-2.65c0-1.188,0.923-2.387,2.77-2.387c1.248,0,2.207,0.636,2.566,0.899   c0.145,0.084,0.121,0.3,0.072,0.384l-0.611,0.924c-0.084,0.132-0.301,0.24-0.408,0.156c-0.107-0.061-0.982-0.72-1.715-0.72   c-0.432,0-0.756,0.288-0.756,0.611c0,0.444,0.359,0.779,1.307,1.163c0.936,0.372,2.424,1.104,2.424,2.735   c0,1.235-1.068,2.482-2.83,2.482c-1.561,0-2.424-0.647-2.699-0.924C23.996,42.453,23.958,42.405,24.055,42.237"/><path style="clip-path:url(#a);" d="M31.111,35.209c0-0.119,0.107-0.228,0.227-0.228h1.439c0.121,0,0.229,0.108,0.229,0.228   v7.94c0,0.119-0.107,0.228-0.229,0.228h-1.439c-0.119,0-0.227-0.108-0.227-0.228V35.209z"/><rect x="31.732" y="18.368" style="clip-path:url(#a);" width="2.024" height="0.507"/><path style="clip-path:url(#a);" d="M22.37,16.527c-1.071,1.742-0.528,4.023,1.214,5.095   c1.742,1.072,4.022,0.529,5.096-1.215c1.074-1.743,0.986-8.669,0.986-8.669S23.442,14.783,22.37,16.527 M26.67,19.386   c-0.424,0.686-1.318,0.899-2.003,0.477c-0.686-0.421-0.899-1.319-0.479-2.003c0.423-0.686,1.32-0.899,2.003-0.478   C26.879,17.803,27.092,18.7,26.67,19.386"/><rect x="25.236" y="10.234" style="clip-path:url(#a);" width="0.506" height="2.026"/><rect x="25.236" y="24.984" style="clip-path:url(#a);" width="0.506" height="2.025"/><rect x="17.102" y="18.368" style="clip-path:url(#a);" width="2.027" height="0.507"/><path style="clip-path:url(#a);" d="M38.465,18.621l0.385-0.818l0.56-1.189l-0.87-0.985l-0.602-0.68l0.139-0.896l0.199-1.3   l-1.113-0.699l-0.768-0.481l-0.119-0.897L36.1,9.374l-1.264-0.357l-0.871-0.246L33.6,7.945l-0.533-1.202l-1.314,0.012l-0.906,0.008   l-0.586-0.69l-0.851-1.002L28.15,5.454l-0.865,0.265l-0.758-0.497L25.43,4.503l-1.095,0.719l-0.759,0.497l-0.866-0.265   l-1.258-0.383l-0.851,1.002l-0.587,0.691l-0.906-0.008l-1.313-0.012l-0.533,1.201l-0.368,0.827l-0.87,0.246l-1.263,0.357   l-0.174,1.301l-0.121,0.898l-0.768,0.481l-1.113,0.699l0.2,1.3l0.138,0.895l-0.6,0.68l-0.869,0.985l0.559,1.189l0.383,0.818   l-0.383,0.819l-0.559,1.189l0.869,0.985l0.6,0.68l-0.138,0.896l-0.2,1.299l1.113,0.698l0.605,0.381l-8.786,8.785   c-0.777,0.777-0.777,2.051,0.001,2.828l1.414,1.414c0.778,0.777,2.051,0.777,2.829,0l8.097-8.099l1.25-0.011l0.906-0.008   l0.586,0.69l0.852,1.003l1.258-0.384l0.866-0.265l0.759,0.497l1.095,0.719l1.098-0.719l0.758-0.497l0.865,0.265l1.259,0.384   l0.851-1.002l0.586-0.691l0.908,0.008l1.312,0.012l0.533-1.2l0.367-0.827l0.871-0.246l1.264-0.356l0.174-1.302l0.121-0.898   l0.766-0.48l1.113-0.699l-0.199-1.298l-0.139-0.896l0.6-0.68l0.872-0.985l-0.56-1.189L38.465,18.621z M25.43,27.929   c-5.132,0-9.308-4.175-9.308-9.308c0-5.132,4.176-9.307,9.308-9.307c5.133,0,9.309,4.175,9.309,9.307   C34.738,23.754,30.562,27.929,25.43,27.929"/></g><text x="0" y="63" fill="#000000" font-size="5px" font-weight="bold" font-family="'Helvetica Neue', Helvetica, Arial-Unicode, Arial, Sans-serif">Created by Lloyd Humphreys</text><text x="0" y="68" fill="#000000" font-size="5px" font-weight="bold" font-family="'Helvetica Neue', Helvetica, Arial-Unicode, Arial, Sans-serif">from the Noun Project</text></svg>