<svg xmlns="http://www.w3.org/2000/svg" xmlns:xlink="http://www.w3.org/1999/xlink" version="1.1" x="0px" y="0px" viewBox="0 0 48 60" style="enable-background:new 0 0 48 48;" xml:space="preserve"><g><path d="M24,4.75C13.386,4.75,4.75,13.386,4.75,24S13.386,43.25,24,43.25S43.25,34.614,43.25,24S34.614,4.75,24,4.75z M24,41.25   c-9.512,0-17.25-7.738-17.25-17.25S14.488,6.75,24,6.75S41.25,14.488,41.25,24S33.512,41.25,24,41.25z"/><path d="M7.5,11.075L5.927,9.841C2.731,13.914,1.042,18.811,1.042,24c0,4.932,1.54,9.631,4.453,13.592l1.611-1.186   C4.447,32.792,3.042,28.502,3.042,24C3.042,19.262,4.584,14.793,7.5,11.075z"/><path d="M42.071,9.839l-1.574,1.234c2.918,3.719,4.46,8.189,4.46,12.927c0,4.502-1.405,8.793-4.065,12.407l1.611,1.186   c2.914-3.961,4.454-8.661,4.454-13.593C46.957,18.811,45.268,13.914,42.071,9.839z"/><path d="M23.463,25.913h1.073c0.23,0,0.46-0.204,0.485-0.408l1.253-7.179v-2.862c0-0.255-0.23-0.485-0.485-0.485H22.21   c-0.254,0-0.484,0.23-0.484,0.485v2.913l1.252,7.128C23.003,25.709,23.233,25.913,23.463,25.913z"/><path d="M23.974,28.265c-1.303,0-2.401,1.124-2.401,2.451c0,1.304,1.098,2.401,2.401,2.401c1.329,0,2.453-1.098,2.453-2.401   C26.427,29.389,25.303,28.265,23.974,28.265z"/></g><text x="0" y="63" fill="#000000" font-size="5px" font-weight="bold" font-family="'Helvetica Neue', Helvetica, Arial-Unicode, Arial, Sans-serif">Created by Lloyd Humphreys</text><text x="0" y="68" fill="#000000" font-size="5px" font-weight="bold" font-family="'Helvetica Neue', Helvetica, Arial-Unicode, Arial, Sans-serif">from the Noun Project</text></svg>