<svg xmlns="http://www.w3.org/2000/svg" xmlns:xlink="http://www.w3.org/1999/xlink" version="1.1" x="0px" y="0px" viewBox="0 0 48 60" style="enable-background:new 0 0 48 48;" xml:space="preserve"><path d="M38.45,5.455c-0.265,0.064-0.902,0.275-1.417,0.467c0,0-11.698,4.394-16.943,8.822c-0.509,0.43-0.758,0.657-0.758,0.657  c-0.408,0.37-0.423,0.99-0.034,1.378c0.388,0.388,1.024,1.024,1.413,1.413l0.207,0.207c0.389,0.389,0.868,1.127,1.064,1.641  c0,0,0.35,0.916-0.356,1.623s-1.624,0.357-1.624,0.357c-0.514-0.196-1.252-0.675-1.641-1.064l-0.209-0.209  c-0.389-0.389-1.025-1.025-1.414-1.413c-0.388-0.389-1.01-0.375-1.381,0.031c0,0-0.228,0.249-0.659,0.756  c-4.444,5.239-8.841,16.921-8.841,16.921c-0.194,0.515-0.405,1.152-0.469,1.418c-0.064,0.265,0.319,0.591,0.853,0.725l13.179,3.307  c0.534,0.135,1.029,0.033,1.102-0.223c0.073-0.257,0.307-0.882,0.52-1.39c0,0,3.656-8.714,7.267-12.327  c3.667-3.667,12.607-7.263,12.607-7.263c0.511-0.205,1.146-0.429,1.412-0.498c0.265-0.067,0.372-0.56,0.238-1.093L39.178,6.308  C39.043,5.774,38.716,5.39,38.45,5.455z"/><text x="0" y="63" fill="#000000" font-size="5px" font-weight="bold" font-family="'Helvetica Neue', Helvetica, Arial-Unicode, Arial, Sans-serif">Created by Lloyd Humphreys</text><text x="0" y="68" fill="#000000" font-size="5px" font-weight="bold" font-family="'Helvetica Neue', Helvetica, Arial-Unicode, Arial, Sans-serif">from the Noun Project</text></svg>