<svg xmlns="http://www.w3.org/2000/svg" xmlns:xlink="http://www.w3.org/1999/xlink" version="1.1" x="0px" y="0px" viewBox="0 0 100 125" enable-background="new 0 0 100 100" xml:space="preserve"><path fill="#000000" d="M67.1,32.9c-3.1-2.7-6.8-4.5-10.6-5.4c0.7,6.6-2.5,12.4-7.5,13.2c-5,0.8-9.8-3.8-11.2-10.3  c-1.7,1-3.3,2.2-4.7,3.7c-1.4,1.4-2.7,3-3.7,4.7c6.5,1.4,11,6.2,10.3,11.2c-0.8,5-6.6,8.2-13.2,7.5c0.9,3.8,2.7,7.4,5.4,10.6  c3.3-5.8,9.3-8.6,13.8-6.3c4.5,2.3,5.8,8.8,3,14.9c4,0.3,8-0.3,11.7-1.9c-4.5-4.9-5.3-11.5-1.7-15.1c3.6-3.6,10.2-2.7,15.1,1.7  c1.6-3.7,2.2-7.8,1.9-11.7c-6.1,2.7-12.6,1.4-14.9-3C58.5,42.2,61.3,36.2,67.1,32.9z M56.4,57.5c-3.1,3.1-8.2,3.1-11.3,0  s-3.1-8.2,0-11.3s8.2-3.1,11.3,0S59.5,54.3,56.4,57.5z"/><circle fill="#000000" cx="50.7" cy="51.8" r="4.9"/><g><path fill="#000000" d="M78.1,56c-0.8,5-3.4,11.1-7.8,15.5c-10.8,10.8-28.3,10.7-39.1,0c-10.8-10.8-10.7-28.3,0.1-39.1   c4.4-4.4,9.7-7,15.7-7.8V12c-9,0.9-17.6,4.7-24.4,11.5C7,39.1,6.9,64.5,22.5,80.1c15.6,15.6,40.9,15.7,56.5,0.1   C85.9,73.4,89.7,65,90.5,56H78.1z"/><path fill="#000000" d="M82.6,19.7C73.3,10.4,61,6,49,6v14.6c9,0,16.8,3,23.2,9.4c6.4,6.4,9.7,15,9.7,23h14.6   C96.5,41,91.8,29,82.6,19.7z M53.8,14.9c-1.1,0-1.9-0.9-1.9-1.9s0.9-1.9,1.9-1.9s1.9,0.9,1.9,1.9S54.8,14.9,53.8,14.9z M88.8,48.9   c-1.1,0-1.9-0.9-1.9-1.9s0.9-1.9,1.9-1.9s1.9,0.9,1.9,1.9S89.8,48.9,88.8,48.9z"/></g><text x="0" y="115" fill="#000000" font-size="5px" font-weight="bold" font-family="'Helvetica Neue', Helvetica, Arial-Unicode, Arial, Sans-serif">Created by Rohan Gupta</text><text x="0" y="120" fill="#000000" font-size="5px" font-weight="bold" font-family="'Helvetica Neue', Helvetica, Arial-Unicode, Arial, Sans-serif">from the Noun Project</text></svg>