<svg xmlns="http://www.w3.org/2000/svg" xmlns:xlink="http://www.w3.org/1999/xlink" version="1.1" x="0px" y="0px" viewBox="0 0 48 60" style="enable-background:new 0 0 48 48;" xml:space="preserve"><path d="M42.523,13.893h-3.994v4.348h-2.148v-2.342l-1.328-2.006H23.092v-2.334h6.426v-2.33H14.335v2.33h6.426v2.334H9.24  l-1.356,3.037h-3v8.009H3.137v-7.427H1.972v16.018h1.165v-7.426h1.748v7.587h3.131l4.923,5.08h21.672l1.613-2.369v-2.6h1.992v2.456  h4.307l3.506-5.134V19.027L42.523,13.893z M43.699,30.405l-2.404,3.522h-0.748v-1.291v-1.165h-1.166h-4.32h-1.166v1.165v3.046  l-0.516,0.758H13.926l-4.581-4.727l-0.342-0.354H8.509H7.214v-12.1h1.424h0.755l0.309-0.69l1.048-2.347h23.05l0.25,0.377v2.806  v1.165h1.164h4.479h1.166v-1.165v-3.183h0.436l2.404,3.524V30.405z"/><text x="0" y="63" fill="#000000" font-size="5px" font-weight="bold" font-family="'Helvetica Neue', Helvetica, Arial-Unicode, Arial, Sans-serif">Created by Lloyd Humphreys</text><text x="0" y="68" fill="#000000" font-size="5px" font-weight="bold" font-family="'Helvetica Neue', Helvetica, Arial-Unicode, Arial, Sans-serif">from the Noun Project</text></svg>