<svg xmlns="http://www.w3.org/2000/svg" xmlns:xlink="http://www.w3.org/1999/xlink" version="1.1" x="0px" y="0px" viewBox="0 0 48 60" style="enable-background:new 0 0 48 48;" xml:space="preserve"><g><path d="M31.835,22.812c-0.399-1.477-1.627-2.685-3.128-3.076c-0.796-0.209-1.67-0.137-2.267,0.114   c-1.143,0.339-2.176,1.233-3.071,2.655c-0.018,0.028-0.035,0.056-0.052,0.083c-0.072-0.818-0.229-1.588-0.732-2.094   c-0.638-0.641-1.456-0.979-2.368-0.98c-1.828,0-3.572,1.402-4.057,3.261c-0.211,0.809-0.162,1.602,0.114,2.267   c0.34,1.143,1.233,2.176,2.657,3.072c0.085,0.053,0.168,0.104,0.251,0.155c-0.846,0.068-1.648,0.219-2.17,0.738   c-0.877,0.873-1.186,2.093-0.848,3.348c0.399,1.478,1.627,2.686,3.128,3.078c0.804,0.209,1.665,0.138,2.267-0.114   c1.129-0.336,2.152-1.212,3.041-2.606c0.077,0.769,0.243,1.484,0.72,1.963c0.639,0.641,1.457,0.979,2.367,0.979   c1.828,0,3.572-1.402,4.059-3.262c0.211-0.809,0.161-1.602-0.114-2.265c-0.34-1.144-1.232-2.177-2.655-3.072   c-0.08-0.051-0.161-0.101-0.241-0.149c0.876-0.066,1.714-0.209,2.253-0.746C31.865,25.286,32.174,24.066,31.835,22.812z    M29.597,24.726c-0.217,0.147-1.114,0.195-1.597,0.221c-0.777,0.042-1.512,0.082-2.062,0.339c-0.309,0.143-0.58,0.4-0.881,0.836   l-0.772,1.116l1.294,0.406c0.154,0.048,0.308,0.098,0.46,0.153c0.575,0.21,1.205,0.529,1.871,0.95   c0.986,0.62,1.61,1.294,1.837,2.042c0.144,0.353,0.165,0.711,0.063,1.097c-0.289,1.106-1.307,1.768-2.123,1.768   c-0.372,0-0.691-0.132-0.933-0.371c-0.146-0.217-0.194-1.114-0.221-1.596c-0.042-0.778-0.082-1.514-0.337-2.058   c-0.116-0.255-0.314-0.487-0.625-0.73l-1.143-0.811l-0.542,1.637c-0.208,0.572-0.528,1.202-0.95,1.872   c-0.621,0.985-1.295,1.609-2.04,1.836c-0.358,0.144-0.709,0.166-1.1,0.063c-0.807-0.211-1.492-0.88-1.703-1.664   c-0.105-0.39-0.134-0.949,0.308-1.392c0.217-0.146,1.115-0.194,1.597-0.221c0.777-0.042,1.512-0.082,2.066-0.341   c0.298-0.139,0.561-0.386,0.854-0.801l0.793-1.127l-1.317-0.405c-0.179-0.055-0.357-0.115-0.528-0.177   c-0.569-0.207-1.199-0.527-1.872-0.95c-0.986-0.62-1.61-1.295-1.837-2.042c-0.144-0.353-0.165-0.712-0.063-1.099   c0.289-1.106,1.306-1.767,2.121-1.767c0.374,0,0.694,0.132,0.934,0.371c0.147,0.217,0.195,1.116,0.222,1.599   c0.042,0.777,0.082,1.51,0.339,2.062c0.129,0.279,0.358,0.533,0.721,0.8l1.123,0.825l0.422-1.328   c0.042-0.134,0.085-0.268,0.133-0.398c0.208-0.573,0.528-1.202,0.95-1.872c0.62-0.986,1.295-1.61,2.041-1.836   c0.356-0.144,0.715-0.165,1.098-0.063c0.808,0.21,1.492,0.879,1.704,1.663C30.01,23.723,30.038,24.284,29.597,24.726z"/><polygon points="5.467,26.431 14.958,26.431 14.958,23.431 4.796,23.431  "/><polygon points="32.834,26.431 42.532,26.431 43.203,23.431 32.834,23.431  "/><polygon points="3.007,15.431 3.678,18.431 44.321,18.431 44.992,15.431  "/></g><text x="0" y="63" fill="#000000" font-size="5px" font-weight="bold" font-family="'Helvetica Neue', Helvetica, Arial-Unicode, Arial, Sans-serif">Created by Lloyd Humphreys</text><text x="0" y="68" fill="#000000" font-size="5px" font-weight="bold" font-family="'Helvetica Neue', Helvetica, Arial-Unicode, Arial, Sans-serif">from the Noun Project</text></svg>