<svg xmlns="http://www.w3.org/2000/svg" xmlns:xlink="http://www.w3.org/1999/xlink" version="1.1" x="0px" y="0px" viewBox="0 0 100 125" enable-background="new 0 0 100 100" xml:space="preserve"><path fill="#000000" d="M92,40.5c0-2.5-2-4.5-4.5-4.5H72h-3.5C66,36,64,34,64,31.5v0c0-2.5-2-4.5-4.5-4.5h-22C35,27,33,29,33,31.5v0  c0,2.5-2,4.5-4.5,4.5h-6C20,36,18,38,18,40.5v30c0,2.5,2,4.5,4.5,4.5h10.7c1.7,0,3.2,0.9,4,2.4l2.3,4.3c0.8,1.5,2.3,2.4,4,2.4H69  c1.8,0,3.4-1.1,4.1-2.7l5.8-13.5c0.7-1.7,2.3-2.7,4.1-2.7h4.4c2.5,0,4.5-2,4.5-4.5V40.5z"/><path fill="#000000" d="M60.5,16h-24c-1.4,0-2.5,1.1-2.5,2.5v0c0,1.4,1.1,2.5,2.5,2.5H46v3h6v-3h8.5c1.4,0,2.5-1.1,2.5-2.5v0  C63,17.1,61.9,16,60.5,16z"/><path fill="#000000" d="M6.5,43.5v24C6.5,68.9,7.6,70,9,70h0c1.4,0,2.5-1.1,2.5-2.5V58h3v-6h-3v-8.5c0-1.4-1.1-2.5-2.5-2.5h0  C7.6,41,6.5,42.1,6.5,43.5z"/><text x="0" y="115" fill="#000000" font-size="5px" font-weight="bold" font-family="'Helvetica Neue', Helvetica, Arial-Unicode, Arial, Sans-serif">Created by Rohan Gupta</text><text x="0" y="120" fill="#000000" font-size="5px" font-weight="bold" font-family="'Helvetica Neue', Helvetica, Arial-Unicode, Arial, Sans-serif">from the Noun Project</text></svg>