<svg xmlns="http://www.w3.org/2000/svg" xmlns:xlink="http://www.w3.org/1999/xlink" version="1.1" x="0px" y="0px" viewBox="0 0 100 125" enable-background="new 0 0 100 100" xml:space="preserve"><path fill="#000000" d="M74.9,48.1c-0.3-4.1-1.6-8-3.7-11.3c-4.2,5.2-10.6,7-14.6,4.1c-4.1-3-4.3-9.6-0.7-15.2C54,25.3,52,25,50,25  s-4,0.3-5.9,0.7c3.6,5.6,3.4,12.2-0.7,15.2c-4.1,3-10.5,1.1-14.6-4.1c-2.1,3.3-3.4,7.2-3.7,11.3c6.4-1.7,12.7,0.6,14.2,5.3  c1.6,4.8-2.2,10.3-8.4,12.7c2.6,3,5.9,5.5,9.6,7c0.3-6.6,4.4-11.9,9.5-11.9s9.1,5.3,9.5,11.9c3.7-1.5,7-3.9,9.6-7  c-6.2-2.4-9.9-7.9-8.4-12.7C62.3,48.7,68.5,46.4,74.9,48.1z M50,58c-4.4,0-8-3.6-8-8s3.6-8,8-8s8,3.6,8,8S54.4,58,50,58z"/><circle fill="#000000" cx="50" cy="50" r="4.9"/><path fill="#000000" d="M80.2,77.9c7.5-5.7,9.7-14.7,9.8-26.4C90.3,29.2,72.5,10.1,50.2,10C28,9.9,10,27.8,10,50  c0,12.4,2.1,22,9.8,27.9c1.3,1,0.9,3-0.7,3.4c-1.2,0.3-1.9,0.6-1.9,0.9c0,1.5,14.7,2.8,32.8,2.8s32.8-1.2,32.8-2.8  c0-0.3-0.7-0.6-1.9-0.9C79.3,81,78.9,78.9,80.2,77.9z M50,22.4c15.3,0,27.6,12.4,27.6,27.6c0,15.3-12.4,27.6-27.6,27.6  S22.4,65.3,22.4,50C22.4,34.7,34.7,22.4,50,22.4z"/><text x="0" y="115" fill="#000000" font-size="5px" font-weight="bold" font-family="'Helvetica Neue', Helvetica, Arial-Unicode, Arial, Sans-serif">Created by Rohan Gupta</text><text x="0" y="120" fill="#000000" font-size="5px" font-weight="bold" font-family="'Helvetica Neue', Helvetica, Arial-Unicode, Arial, Sans-serif">from the Noun Project</text></svg>