<svg xmlns="http://www.w3.org/2000/svg" xmlns:xlink="http://www.w3.org/1999/xlink" version="1.1" x="0px" y="0px" viewBox="0 0 48 60" style="enable-background:new 0 0 48 48;" xml:space="preserve"><g><defs><rect id="b" width="48" height="48"/></defs><clipPath id="a"><use xlink:href="#b" style="" overflow="visible"/></clipPath><path style="clip-path:url(#a);" d="M43.615,18.17c-3.184-5.308-1.951-8.372-1.869-8.565   c0.469-0.981,0.066-2.161-0.91-2.649c-0.992-0.496-2.189-0.092-2.684,0.895c-0.252,0.502-2.326,5.112,2.033,12.377   c2.666,4.441,4.732,13.362-4.082,19.022H11.896c-8.815-5.66-6.747-14.58-4.083-19.022c4.36-7.265,2.285-11.875,2.035-12.377   C9.362,6.879,8.2,6.495,7.217,6.958S5.811,8.606,6.251,9.599c0.056,0.129,1.354,3.202-1.867,8.571   c-4.504,7.506-4.576,18.465,5.908,24.793c0.311,0.187,0.669,0.287,1.033,0.287h25.351c0.363,0,0.721-0.101,1.033-0.287   C48.191,36.635,48.119,25.676,43.615,18.17"/><path style="clip-path:url(#a);" d="M23.218,24.689h1.564c0.335,0,0.673-0.298,0.708-0.596l1.826-10.469V9.453   c0-0.373-0.336-0.708-0.707-0.708h-5.216c-0.373,0-0.708,0.335-0.708,0.708V13.7l1.825,10.394   C22.548,24.392,22.883,24.689,23.218,24.689"/><path style="clip-path:url(#a);" d="M23.963,35.197c1.937,0,3.576-1.604,3.576-3.504c0-1.936-1.639-3.574-3.576-3.574   c-1.9,0-3.502,1.639-3.502,3.574C20.461,33.594,22.063,35.197,23.963,35.197"/></g><text x="0" y="63" fill="#000000" font-size="5px" font-weight="bold" font-family="'Helvetica Neue', Helvetica, Arial-Unicode, Arial, Sans-serif">Created by Lloyd Humphreys</text><text x="0" y="68" fill="#000000" font-size="5px" font-weight="bold" font-family="'Helvetica Neue', Helvetica, Arial-Unicode, Arial, Sans-serif">from the Noun Project</text></svg>