<svg xmlns="http://www.w3.org/2000/svg" xmlns:xlink="http://www.w3.org/1999/xlink" version="1.1" x="0px" y="0px" viewBox="0 0 48 60" style="enable-background:new 0 0 48 48;" xml:space="preserve"><path d="M38.568,17.174l1.406-0.833l-6.442-7.26l-1.016,0.833c7.891,9.682,10.604,24.133,7.706,27.032  c-1.084,1.084-2.896,1.681-4.742,1.534c-1.678-0.124-3.098-0.817-3.896-1.898c-0.848-1.147-0.263-4.557,0.254-7.564  c0.697-4.065,1.355-7.903-0.399-9.436c-0.904-0.79-2.191-0.938-3.2-0.907V8.226V5.377c0-0.552-0.447-1-1-1h-19c-0.552,0-1,0.448-1,1  v2.849v13.079v21.792H6.507v1.871H28.97v-1.871h-0.731V21.305v-1.316c0.807-0.03,1.756,0.076,2.336,0.582  c1.201,1.048,0.547,4.86-0.032,8.224c-0.614,3.585-1.195,6.972-0.015,8.568c1.027,1.39,2.797,2.275,4.855,2.428  c0.216,0.017,0.43,0.024,0.643,0.024c2.009,0,3.891-0.704,5.126-1.939C43.854,35.171,42.659,25.783,38.568,17.174z M26.353,16.801  c0,0.552-0.448,1-1.001,1H10.124c-0.552,0-1-0.448-1-1V7.345c0-0.552,0.448-1,1-1h15.228c0.553,0,1.001,0.448,1.001,1V16.801z"/><text x="0" y="63" fill="#000000" font-size="5px" font-weight="bold" font-family="'Helvetica Neue', Helvetica, Arial-Unicode, Arial, Sans-serif">Created by Lloyd Humphreys</text><text x="0" y="68" fill="#000000" font-size="5px" font-weight="bold" font-family="'Helvetica Neue', Helvetica, Arial-Unicode, Arial, Sans-serif">from the Noun Project</text></svg>