<svg xmlns="http://www.w3.org/2000/svg" xmlns:xlink="http://www.w3.org/1999/xlink" version="1.1" x="0px" y="0px" viewBox="0 0 48 60" style="enable-background:new 0 0 48 48;" xml:space="preserve"><g><path d="M34.477,39.334c-2.316,0-3.421-0.833-4.7-1.798c-1.368-1.032-2.919-2.202-5.906-2.202c-2.985,0-4.535,1.17-5.902,2.202   c-1.278,0.965-2.382,1.798-4.697,1.798c-2.316,0-3.42-0.833-4.7-1.799c-1.368-1.031-2.918-2.201-5.903-2.201v2   c2.315,0,3.42,0.833,4.699,1.798c1.368,1.032,2.918,2.202,5.904,2.202c2.985,0,4.535-1.17,5.902-2.202   c1.278-0.965,2.382-1.798,4.697-1.798c2.317,0,3.422,0.833,4.701,1.799c1.368,1.031,2.919,2.201,5.905,2.201   s4.537-1.17,5.906-2.201c1.279-0.966,2.384-1.799,4.701-1.799v-2c-2.986,0-4.537,1.17-5.906,2.201   C37.898,38.501,36.794,39.334,34.477,39.334z"/><path d="M13.271,34.334c2.843,0,4.381-1.061,5.704-2.054c-0.35-0.595-0.597-1.255-0.718-1.96c-0.096,0.072-0.194,0.145-0.289,0.216   c-1.278,0.965-2.382,1.798-4.697,1.798c-2.316,0-3.42-0.833-4.7-1.799c-1.368-1.031-2.918-2.201-5.903-2.201v2   c2.315,0,3.42,0.833,4.699,1.798C8.734,33.164,10.285,34.334,13.271,34.334z"/><path d="M39.178,30.535c-1.279,0.966-2.384,1.799-4.701,1.799c-2.316,0-3.421-0.833-4.7-1.798c-0.02-0.015-0.04-0.029-0.06-0.044   c-0.141,0.692-0.408,1.339-0.771,1.92c1.285,0.952,2.812,1.922,5.531,1.922c2.986,0,4.537-1.17,5.906-2.201   c1.279-0.966,2.384-1.799,4.701-1.799v-2C42.098,28.334,40.547,29.504,39.178,30.535z"/><path d="M24,33.75c2.439,0,4.416-1.977,4.416-4.416c0-2.094-1.461-3.838-3.416-4.293v-2.707h6.751v-2H25v-3h6.751v-2H25v-3h6.751   v-2H25V7.167h-2l0,17.874c-1.956,0.455-3.417,2.199-3.417,4.293C19.583,31.773,21.561,33.75,24,33.75z"/></g><text x="0" y="63" fill="#000000" font-size="5px" font-weight="bold" font-family="'Helvetica Neue', Helvetica, Arial-Unicode, Arial, Sans-serif">Created by Lloyd Humphreys</text><text x="0" y="68" fill="#000000" font-size="5px" font-weight="bold" font-family="'Helvetica Neue', Helvetica, Arial-Unicode, Arial, Sans-serif">from the Noun Project</text></svg>