<svg xmlns="http://www.w3.org/2000/svg" xmlns:xlink="http://www.w3.org/1999/xlink" version="1.1" x="0px" y="0px" viewBox="0 0 100 125" enable-background="new 0 0 100 100" xml:space="preserve"><circle fill="#000000" cx="50" cy="50" r="4.9"/><g><path fill="none" d="M77.9,75.2c-0.5-0.5-1.2-0.7-1.9-0.5l-7.6-6.3l6.3,7.7c-0.2,0.6,0,1.3,0.5,1.8c0.4,0.4,0.9,0.6,1.5,0.5l2,2.4   l2.1-2.1l-2.3-1.9C78.5,76.2,78.3,75.6,77.9,75.2z"/><path fill="#000000" d="M90.3,76.5c0-7.6-6.2-13.7-13.7-13.7c-7.6,0-13.7,6.2-13.7,13.7c0,3.7,1.5,7,3.8,9.5h19.9   C88.8,83.5,90.3,80.2,90.3,76.5z M78.6,80.8l-2-2.4c-0.5,0-1.1-0.1-1.5-0.5c-0.5-0.5-0.7-1.2-0.5-1.8l-6.3-7.7l7.6,6.3   c0.6-0.2,1.4,0,1.9,0.5c0.4,0.4,0.6,1,0.5,1.5l2.3,1.9L78.6,80.8z"/></g><path fill="#000000" d="M60.1,76.5c0-0.3,0-0.5,0-0.8C57,77,53.6,77.6,50,77.6c-15.3,0-27.6-12.4-27.6-27.6  c0-15.3,12.4-27.6,27.6-27.6S77.6,34.7,77.6,50c0,3.6-0.7,7-1.9,10.1c0.3,0,0.5,0,0.8,0c4.2,0,8,1.6,10.9,4.1C89.1,59.8,90,55,90,50  c0-22.1-17.9-40-40-40S10,27.9,10,50c0,22.1,17.9,40,40,40c5,0,9.8-0.9,14.2-2.6C61.6,84.5,60.1,80.7,60.1,76.5z"/><path fill="#000000" d="M65.5,64.3c-4-2.8-6.1-7-4.8-10.8c1.6-4.8,7.8-7.1,14.2-5.3c-0.3-4.1-1.6-8-3.7-11.3  c-4.2,5.2-10.6,7-14.6,4.1c-4.1-3-4.3-9.6-0.7-15.2C54,25.3,52,25,50,25s-4,0.3-5.9,0.7c3.6,5.6,3.4,12.2-0.7,15.2  c-4.1,3-10.5,1.1-14.6-4.1c-2.1,3.3-3.4,7.2-3.7,11.3c6.4-1.7,12.7,0.6,14.2,5.3c1.6,4.8-2.2,10.3-8.4,12.7c2.6,3,5.9,5.5,9.6,7  c0.3-6.6,4.4-11.9,9.5-11.9s9.1,5.3,9.5,11.9c0.4-0.1,0.7-0.3,1.1-0.5C61.3,69.4,63.1,66.5,65.5,64.3z M50,58c-4.4,0-8-3.6-8-8  s3.6-8,8-8s8,3.6,8,8S54.4,58,50,58z"/><text x="0" y="115" fill="#000000" font-size="5px" font-weight="bold" font-family="'Helvetica Neue', Helvetica, Arial-Unicode, Arial, Sans-serif">Created by Rohan Gupta</text><text x="0" y="120" fill="#000000" font-size="5px" font-weight="bold" font-family="'Helvetica Neue', Helvetica, Arial-Unicode, Arial, Sans-serif">from the Noun Project</text></svg>