<?xml version="1.0" encoding="UTF-8" standalone="no"?>
<svg width="62px" height="74px" viewBox="0 0 62 74" version="1.1" xmlns="http://www.w3.org/2000/svg" xmlns:xlink="http://www.w3.org/1999/xlink" xmlns:sketch="http://www.bohemiancoding.com/sketch/ns">
    <!-- Generator: Sketch 3.3.3 (12081) - http://www.bohemiancoding.com/sketch -->
    <title>Air direction Copy 3</title>
    <desc>Created with Sketch.</desc>
    <defs></defs>
    <g id="Page-1" stroke="none" stroke-width="1" fill="none" fill-rule="evenodd" sketch:type="MSPage">
        <g id="Assets" sketch:type="MSArtboardGroup" transform="translate(-1476.000000, -536.000000)">
            <g id="Air-direction-Copy-3" sketch:type="MSLayerGroup" transform="translate(1476.000000, 536.000000)">
                <rect id="Rectangle-71" stroke="#566573" sketch:type="MSShapeGroup" x="0" y="0" width="62" height="74" rx="5"></rect>
                <g id="Defog" transform="translate(7.000000, 24.000000)" sketch:type="MSShapeGroup">
                    <path d="M47.7703863,5.43552819 C40.4488119,1.94997448 32.2607597,0 23.6190251,0 C15.1861361,0 7.18526628,1.85686288 -1.65201186e-13,5.18551736 L10.4330075,27.6110126 C14.4497535,25.7700263 18.9150529,24.744186 23.6190251,24.744186 C28.5318445,24.744186 33.1843274,25.863139 37.3373789,27.8610232 L47.7703863,5.43552819 Z" id="Oval-39" stroke="#566573" stroke-width="2"></path>
                    <g id="Squiggly-arrow" transform="translate(13.621622, 6.000000)">
                        <path d="M3.52421197,13.6793138 C3.52421197,13.6793138 5.74855003,8.1321438 3.34768729,8.1321438 C0.946824546,8.1321438 2.30949355,3.22643739 2.30949355,3.22643739" id="Path-44" stroke="#566573" stroke-width="2"></path>
                        <polygon id="Triangle-8" fill="#566573" points="2.23125381 0 4.46250762 4.47980416 0 4.47980416 "></polygon>
                    </g>
                    <g id="Squiggly-arrow-Copy" transform="translate(29.189189, 6.000000)">
                        <path d="M3.52421197,13.6793138 C3.52421197,13.6793138 5.74855003,8.1321438 3.34768729,8.1321438 C0.946824546,8.1321438 2.30949355,3.22643739 2.30949355,3.22643739" id="Path-44" stroke="#566573" stroke-width="2"></path>
                        <polygon id="Triangle-8" fill="#566573" points="2.23125381 0 4.46250762 4.47980416 0 4.47980416 "></polygon>
                    </g>
                    <g id="Squiggly-arrow-Copy-2" transform="translate(21.405405, 6.000000)">
                        <path d="M3.52421197,13.6793138 C3.52421197,13.6793138 5.74855003,8.1321438 3.34768729,8.1321438 C0.946824546,8.1321438 2.30949355,3.22643739 2.30949355,3.22643739" id="Path-44" stroke="#566573" stroke-width="2"></path>
                        <polygon id="Triangle-8" fill="#566573" points="2.23125381 0 4.46250762 4.47980416 0 4.47980416 "></polygon>
                    </g>
                </g>
            </g>
        </g>
    </g>
</svg>