<?xml version="1.0" encoding="UTF-8" standalone="no"?>
<svg width="76px" height="86px" viewBox="0 0 76 86" version="1.1" xmlns="http://www.w3.org/2000/svg" xmlns:xlink="http://www.w3.org/1999/xlink" xmlns:sketch="http://www.bohemiancoding.com/sketch/ns">
    <!-- Generator: Sketch 3.3.3 (12081) - http://www.bohemiancoding.com/sketch -->
    <title>Music Note Icon</title>
    <desc>Created with Sketch.</desc>
    <defs></defs>
    <g id="Page-1" stroke="none" stroke-width="1" fill="none" fill-rule="evenodd" sketch:type="MSPage">
        <g id="Assets" sketch:type="MSArtboardGroup" transform="translate(-74.000000, -89.000000)" fill="#566573">
            <path d="M104.009729,119.226934 L104.009729,161.594231 C104.009729,162.14435 103.920374,162.673685 103.75543,163.168627 C102.606178,168.526678 97.1272373,173.356426 90.1609683,174.665042 C81.9085398,176.215265 74.6939107,172.237104 74.0466433,165.779571 C73.3993758,159.322038 79.564577,152.83047 87.8170055,151.280247 C89.9864549,150.872715 92.0841829,150.847245 94.0097292,151.148442 L94.0097292,151.148442 L94.0097292,121.683728 L94.0000038,121.686118 L94.0000038,103.523658 L149.300003,89.4861168 L149.300003,102.839024 L149.300003,148.594231 C149.300003,149.14435 149.210648,149.673685 149.045704,150.168627 C147.896452,155.526678 142.417511,160.356426 135.451242,161.665042 C127.198814,163.215265 119.984185,159.237104 119.336917,152.779571 C118.68965,146.322038 124.854851,139.83047 133.107279,138.280247 C135.276729,137.872715 137.374457,137.847245 139.300003,138.148442 L139.300003,138.148442 L139.300003,110.55684 L104.009729,119.226934 Z" id="Music-Note-Icon" sketch:type="MSShapeGroup"></path>
        </g>
    </g>
</svg>