<?xml version="1.0" encoding="UTF-8" standalone="no"?>
<svg width="16px" height="16px" viewBox="0 0 16 16" version="1.1" xmlns="http://www.w3.org/2000/svg" xmlns:xlink="http://www.w3.org/1999/xlink" xmlns:sketch="http://www.bohemiancoding.com/sketch/ns">
    <!-- Generator: Sketch 3.3.3 (12081) - http://www.bohemiancoding.com/sketch -->
    <title>Shape Copy</title>
    <desc>Created with Sketch.</desc>
    <defs></defs>
    <g id="Page-1" stroke="none" stroke-width="1" fill="none" fill-rule="evenodd" sketch:type="MSPage">
        <g id="Assets" sketch:type="MSArtboardGroup" transform="translate(-1411.000000, -458.000000)" fill="#566573">
            <path d="M1423.54837,466.124664 C1422.8389,465.677444 1422.06739,465.264566 1421.28027,464.977346 C1421.09842,464.911005 1420.91422,464.850907 1420.72925,464.791981 C1420.89978,464.546127 1421.08632,464.324859 1421.25373,464.24681 C1422.22817,463.792566 1424.80925,464.189834 1425.571,463.4312 C1427.23383,461.775005 1425.95968,458.834907 1423.56008,458.208176 C1422.88222,458.031005 1422.24612,458.084859 1421.65998,458.323688 C1420.49783,458.668664 1419.57998,459.695005 1418.89939,460.776371 C1418.45178,461.485834 1418.03851,462.256956 1417.75168,463.044859 C1417.69393,463.203298 1417.64203,463.364468 1417.59012,463.525249 C1417.38564,463.374615 1417.2112,463.215785 1417.14368,463.070615 C1416.68905,462.096956 1417.08632,459.515103 1416.32808,458.753737 C1414.67149,457.090907 1411.73139,458.365054 1411.10466,460.765054 C1410.92749,461.442907 1410.98134,462.079005 1411.22017,462.665151 C1411.56515,463.826907 1412.59149,464.745542 1413.67286,465.426517 C1414.38232,465.872956 1415.15344,466.287005 1415.94134,466.573444 C1416.15051,466.649151 1416.36242,466.720176 1416.57549,466.786127 C1416.41042,467.021054 1416.23208,467.229054 1416.07129,467.304371 C1415.09686,467.758615 1412.51539,467.360956 1411.75403,468.119981 C1410.09081,469.775395 1411.36495,472.715493 1413.76495,473.342615 C1414.44281,473.519785 1415.07851,473.465542 1415.66544,473.227493 C1416.8272,472.882127 1417.74505,471.856176 1418.42603,470.7752 C1418.87325,470.065346 1419.2869,469.293444 1419.57295,468.506712 C1419.62329,468.368566 1419.66778,468.228468 1419.71383,468.088761 C1419.88086,468.219883 1420.01978,468.355298 1420.07793,468.479785 C1420.53256,469.454225 1420.1349,472.035298 1420.89393,472.797054 C1422.54973,474.459883 1425.48983,473.185737 1426.11695,470.786127 C1426.29412,470.108273 1426.23988,469.472176 1426.00144,468.886029 C1425.65568,467.723883 1424.62973,466.805639 1423.54837,466.124664 L1423.54837,466.124664 Z" id="Shape-Copy" sketch:type="MSShapeGroup"></path>
        </g>
    </g>
</svg>