<?xml version="1.0" encoding="UTF-8" standalone="no"?>
<svg width="97px" height="65px" viewBox="0 0 97 65" version="1.1" xmlns="http://www.w3.org/2000/svg" xmlns:xlink="http://www.w3.org/1999/xlink" xmlns:sketch="http://www.bohemiancoding.com/sketch/ns">
    <!-- Generator: Sketch 3.3.3 (12081) - http://www.bohemiancoding.com/sketch -->
    <title>Engine Icon</title>
    <desc>Created with Sketch.</desc>
    <defs></defs>
    <g id="Page-1" stroke="none" stroke-width="1" fill="none" fill-rule="evenodd" sketch:type="MSPage">
        <g id="Assets" sketch:type="MSArtboardGroup" transform="translate(-205.000000, -100.000000)" fill="#566573">
            <g id="Engine-Icon" sketch:type="MSLayerGroup" transform="translate(205.500780, 99.743058)">
                <path d="M88.2673913,10.6015 L79.5847826,10.6015 L79.5847826,20.0221667 L74.9152174,20.0221667 L74.9152174,14.9478333 L72.0282609,10.6015 L46.026087,10.6015 L46.026087,5.5445 L59.9956522,5.5445 L59.9956522,0.496166667 L26.9891304,0.496166667 L26.9891304,5.5445 L40.9586957,5.5445 L40.9586957,10.6015 L15.9130435,10.6015 L12.9652174,17.1816667 L6.44347826,17.1816667 L6.44347826,34.5345 L2.64565217,34.5345 L2.64565217,18.4426667 L0.113043478,18.4426667 L0.113043478,53.1483333 L2.64565217,53.1483333 L2.64565217,37.0586667 L6.44565217,37.0586667 L6.44565217,53.4971667 L13.2521739,53.4971667 L23.9543478,64.5038333 L71.0673913,64.5038333 L74.573913,59.371 L74.573913,53.7376667 L78.9043478,53.7376667 L78.9043478,59.059 L88.2673913,59.059 L95.8891304,47.9353333 L95.8891304,21.7251667 L88.2673913,10.6015 L88.2673913,10.6015 Z M90.823913,46.3775 L85.5978261,54.0085 L83.9717391,54.0085 L83.9717391,51.2113333 L83.9717391,48.6871667 L81.4369565,48.6871667 L72.0456522,48.6871667 L69.5108696,48.6871667 L69.5108696,51.2113333 L69.5108696,57.811 L68.3891304,59.4533333 L26.1,59.4533333 L16.1413043,49.2115 L15.3978261,48.4445 L14.323913,48.4445 L11.5086957,48.4445 L11.5086957,22.2278333 L14.6043478,22.2278333 L16.2456522,22.2278333 L16.9173913,20.7328333 L19.1956522,15.6476667 L69.3043478,15.6476667 L69.8478261,16.4645 L69.8478261,22.5441667 L69.8478261,25.0683333 L72.3782609,25.0683333 L82.1152174,25.0683333 L84.65,25.0683333 L84.65,22.5441667 L84.65,15.6476667 L85.5978261,15.6476667 L90.823913,23.283 L90.823913,46.3775 L90.823913,46.3775 Z" id="Shape" sketch:type="MSShapeGroup"></path>
            </g>
        </g>
    </g>
</svg>