<?xml version="1.0" encoding="UTF-8" standalone="no"?>
<svg width="55px" height="78px" viewBox="0 0 55 78" version="1.1" xmlns="http://www.w3.org/2000/svg" xmlns:xlink="http://www.w3.org/1999/xlink" xmlns:sketch="http://www.bohemiancoding.com/sketch/ns">
    <!-- Generator: Sketch 3.3.3 (12081) - http://www.bohemiancoding.com/sketch -->
    <title>Map Pointer Icon</title>
    <desc>Created with Sketch.</desc>
    <defs></defs>
    <g id="Page-1" stroke="none" stroke-width="1" fill="none" fill-rule="evenodd" sketch:type="MSPage">
        <g id="Assets" sketch:type="MSArtboardGroup" transform="translate(-84.000000, -233.000000)" fill="#566573">
            <g id="Map-Pointer-Icon" sketch:type="MSLayerGroup" transform="translate(84.150002, 233.000000)">
                <path d="M13.071923,27.4647887 L0,27.4647887 C0,12.2964048 12.1902667,0 27.2277228,0 C42.2651788,0 54.4554455,12.2964048 54.4554455,27.4647887 L54.4554455,27.4647887 L40.838968,27.4647887 C40.6938948,19.8556739 34.5335821,13.7323944 26.9554455,13.7323944 C19.377309,13.7323944 13.2169963,19.8556739 13.071923,27.4647887 Z M13.071923,27.4647887 L0,27.4647887 L27.2277228,78 L54.4554455,27.4647887 L40.838968,27.4647887 C40.8407095,27.5561266 40.8415842,27.6476786 40.8415842,27.7394366 C40.8415842,35.4753124 34.6245481,41.7464789 26.9554455,41.7464789 C19.286343,41.7464789 13.0693069,35.4753124 13.0693069,27.7394366 C13.0693069,27.6476786 13.0701816,27.5561266 13.071923,27.4647887 Z" id="Oval-3" sketch:type="MSShapeGroup"></path>
            </g>
        </g>
    </g>
</svg>